<svg width="50" height="50" xmlns="http://www.w3.org/2000/svg">

 <g>
  <title>background</title>
  <rect fill="none" id="canvas_background" height="402" width="582" y="-1" x="-1"/>
 </g>
 <g>
  <title>Layer 1</title>
  <path id="svg_1" fill-rule="evenodd" d="m24.962,16.808c2.006,0.001 3.939,-0.341 7.091,-1.027c4.514,0.036 7.977,1.819 8.368,6.682c0.734,9.131 -8.322,19.595 -15.352,24.204c-7.024,-4.604 -16.199,-15.134 -15.494,-24.266c0.372,-4.825 3.828,-6.584 8.296,-6.62c3.152,0.684 5.084,1.026 7.091,1.027m-13.274,-11.545c-0.528,3.307 0.069,5.651 2.487,8.12c-4.426,1.081 -7.059,4.216 -7.413,8.809c-0.848,10.991 9.603,22.392 18.306,27.808c8.7,-5.406 19.048,-16.781 18.165,-27.758c-0.371,-4.606 -3.027,-7.761 -7.467,-8.853c2.408,-2.425 3.089,-4.727 2.543,-8.125c-3.06,-0.778 -5.526,-0.768 -8.418,0.743c-0.42,-2.828 -2.032,-5.205 -4.892,-6.007c-2.862,0.802 -4.471,3.177 -4.892,6.006c-2.891,-1.512 -5.357,-1.521 -8.419,-0.743zm3.292,17.177c0,-0.752 -0.657,-1.364 -1.468,-1.364c-0.81,0 -1.467,0.611 -1.467,1.364c0,1.115 0.773,2.199 1.467,2.826c0.695,-0.627 1.468,-1.711 1.468,-2.826zm6.104,-0.97c-0.81,0 -1.468,0.61 -1.468,1.363c0,1.115 0.773,2.199 1.468,2.826c0.694,-0.627 1.468,-1.711 1.468,-2.826c0,-0.752 -0.657,-1.363 -1.468,-1.363zm8.506,0c-0.81,0 -1.467,0.61 -1.467,1.363c0,1.115 0.773,2.199 1.467,2.826c0.695,-0.627 1.468,-1.711 1.468,-2.826c0,-0.752 -0.657,-1.363 -1.468,-1.363zm7.572,0.395c-0.811,0 -1.469,0.61 -1.469,1.364c0,1.114 0.774,2.197 1.469,2.825c0.694,-0.628 1.467,-1.711 1.467,-2.825c0.001,-0.754 -0.656,-1.364 -1.467,-1.364zm-3.018,8.78c0,-0.753 -0.657,-1.364 -1.468,-1.364c-0.81,0 -1.468,0.611 -1.468,1.364c0,1.114 0.774,2.197 1.468,2.826c0.695,-0.629 1.468,-1.712 1.468,-2.826zm-9.04,2.431c0.695,-0.628 1.469,-1.711 1.469,-2.826c0,-0.753 -0.658,-1.364 -1.469,-1.364c-0.81,0 -1.467,0.611 -1.467,1.364c-0.001,1.115 0.772,2.198 1.467,2.826zm-7.513,0.395c0.695,-0.628 1.468,-1.712 1.468,-2.826c0,-0.753 -0.658,-1.364 -1.468,-1.364c-0.811,0 -1.468,0.611 -1.468,1.364c0,1.114 0.774,2.197 1.468,2.826zm3.493,3.275c-0.81,0 -1.468,0.611 -1.468,1.363c0,1.116 0.773,2.199 1.468,2.826c0.694,-0.627 1.468,-1.71 1.468,-2.826c0,-0.752 -0.657,-1.363 -1.468,-1.363zm7.038,1.364c0,1.116 0.773,2.199 1.467,2.826c0.695,-0.627 1.468,-1.71 1.468,-2.826c0,-0.753 -0.657,-1.363 -1.468,-1.363c-0.81,-0.001 -1.467,0.61 -1.467,1.363zm-3.123,-35.142c1.796,0.915 2.544,3.79 1.946,5.626l1.335,0.453l1.147,0.816c1.173,-1.646 4.32,-2.466 6.289,-2.268c-0.181,2.289 -2.204,4.529 -4.23,5.424c-2.999,0.652 -4.801,0.978 -6.524,0.978c-1.722,0 -3.524,-0.327 -6.521,-0.977c-2.031,-0.895 -3.998,-3.136 -4.161,-5.424c1.97,-0.199 5.118,0.621 6.291,2.268l1.147,-0.816l1.335,-0.453c-0.598,-1.837 0.151,-4.712 1.946,-5.627z" clip-rule="evenodd"/>
 </g>
</svg>